<?xml version="1.0" encoding="UTF-8" standalone="no"?>
<!-- Created with Inkscape (http://www.inkscape.org/) -->

<svg
   width="217.39767"
   height="19.839167"
   viewBox="0 0 57.519802 5.2491129"
   version="1.1"
   id="svg1"
   inkscape:export-filename="CCLogo.png"
   inkscape:export-xdpi="96"
   inkscape:export-ydpi="96"
   inkscape:version="1.3.2 (091e20e, 2023-11-25, custom)"
   sodipodi:docname="CCrawfordLogo.svg"
   xmlns:inkscape="http://www.inkscape.org/namespaces/inkscape"
   xmlns:sodipodi="http://sodipodi.sourceforge.net/DTD/sodipodi-0.dtd"
   xmlns="http://www.w3.org/2000/svg"
   xmlns:svg="http://www.w3.org/2000/svg">
  <sodipodi:namedview
     id="namedview1"
     pagecolor="#000000"
     bordercolor="#000000"
     borderopacity="0.25"
     inkscape:showpageshadow="2"
     inkscape:pageopacity="0.0"
     inkscape:pagecheckerboard="0"
     inkscape:deskcolor="#d1d1d1"
     inkscape:document-units="mm"
     inkscape:export-bgcolor="#000000ff"
     inkscape:zoom="6.5780584"
     inkscape:cx="131.80181"
     inkscape:cy="54.271334"
     inkscape:window-width="3840"
     inkscape:window-height="2054"
     inkscape:window-x="2869"
     inkscape:window-y="-11"
     inkscape:window-maximized="1"
     inkscape:current-layer="layer1" />
  <defs
     id="defs1">
    <inkscape:path-effect
       effect="fillet_chamfer"
       id="path-effect227"
       is_visible="true"
       lpeversion="1"
       nodesatellites_param="F,0,0,1,0,0.26458333,0,1 @ F,0,0,1,0,0.26458333,0,1 @ F,0,0,1,0,0.26458333,0,1 @ F,0,0,1,0,0.26458333,0,1 @ F,0,0,1,0,0.26458333,0,1 @ F,0,0,1,0,0.26458333,0,1 @ F,0,0,1,0,0.26458333,0,1 @ F,0,0,1,0,0.26458333,0,1 @ F,0,0,1,0,0.26458333,0,1 @ F,0,0,1,0,0.26458333,0,1 @ F,0,0,1,0,0.26458333,0,1 @ F,0,0,1,0,0.26458333,0,1 @ F,0,0,1,0,0.26458333,0,1 @ F,0,0,1,0,0.26458333,0,1 @ F,0,0,1,0,0.26458333,0,1 @ F,0,0,1,0,0.26458333,0,1 @ F,0,0,1,0,0.26458333,0,1 @ F,0,0,1,0,0.26458333,0,1 @ F,0,0,1,0,0.26458333,0,1 @ F,0,0,1,0,0.26458333,0,1 @ F,0,0,1,0,0.26458333,0,1 | F,0,0,1,0,0.26458333,0,1 @ F,0,0,1,0,0.26458333,0,1 @ F,0,0,1,0,0.26458333,0,1 @ F,0,0,1,0,0.26458333,0,1 @ F,0,0,1,0,0.26458333,0,1 @ F,0,0,1,0,0.26458333,0,1 @ F,0,0,1,0,0.26458333,0,1 @ F,0,0,1,0,0.26458333,0,1 @ F,0,0,1,0,0.26458333,0,1 @ F,0,0,1,0,0.26458333,0,1 @ F,0,0,1,0,0.26458333,0,1 @ F,0,0,1,0,0.26458333,0,1 @ F,0,0,1,0,0.26458333,0,1 @ F,0,0,1,0,0.26458333,0,1 @ F,0,0,1,0,0.26458333,0,1 @ F,0,0,1,0,0.26458333,0,1 @ F,0,0,1,0,0.26458333,0,1 @ F,0,0,1,0,0.26458333,0,1 @ F,0,0,1,0,0.26458333,0,1 @ F,0,0,1,0,0.26458333,0,1 @ F,0,0,1,0,0.26458333,0,1 | F,0,0,1,0,0.26458333,0,1 @ F,0,0,1,0,0.26458333,0,1 @ F,0,0,1,0,0.26458333,0,1 @ F,0,0,1,0,0.26458333,0,1 @ F,0,0,1,0,0.26458333,0,1 @ F,0,0,1,0,0.26458333,0,1 @ F,0,0,1,0,0.26458333,0,1 @ F,0,0,1,0,0.26458333,0,1 @ F,0,0,1,0,0.26458333,0,1 @ F,0,0,1,0,0.26458333,0,1 @ F,0,0,1,0,0.26458333,0,1 @ F,0,0,1,0,0.26458333,0,1 @ F,0,0,1,0,0.26458333,0,1 | F,0,0,1,0,0.26458333,0,1 @ F,0,0,1,0,0.26458333,0,1 @ F,0,0,1,0,0.26458333,0,1 @ F,0,0,1,0,0.26458333,0,1 @ F,0,0,1,0,0.26458333,0,1 @ F,0,0,1,0,0.26458333,0,1 @ F,0,0,1,0,0.26458333,0,1 @ F,0,0,1,0,0.26458333,0,1 @ F,0,0,1,0,0.26458333,0,1 | F,0,0,1,0,0.26458333,0,1 @ F,0,0,1,0,0.26458333,0,1 @ F,0,0,1,0,0.26458333,0,1 @ F,0,0,1,0,0.26458333,0,1 @ F,0,0,1,0,0.26458333,0,1 @ F,0,0,1,0,0.26458333,0,1 @ F,0,0,1,0,0.26458333,0,1 @ F,0,0,1,0,0.26458333,0,1 | F,0,0,1,0,0.26458333,0,1 @ F,0,0,1,0,0.26458333,0,1 @ F,0,0,1,0,0.26458333,0,1 | F,0,0,1,0,0.26458333,0,1 @ F,0,0,1,0,0.26458333,0,1 @ F,0,0,1,0,0.26458333,0,1 @ F,0,0,1,0,0.26458333,0,1 @ F,0,0,1,0,0.26458333,0,1 @ F,0,0,1,0,0.26458333,0,1 @ F,0,0,1,0,0.26458333,0,1 @ F,0,0,1,0,0.26458333,0,1 @ F,0,0,1,0,0.26458333,0,1 @ F,0,0,1,0,0.26458333,0,1 @ F,0,0,1,0,0.26458333,0,1 @ F,0,0,1,0,0.26458333,0,1 @ F,0,0,1,0,0.26458333,0,1 | F,0,0,1,0,0.26458333,0,1 @ F,0,0,1,0,0.26458333,0,1 @ F,0,0,1,0,0.26458333,0,1 @ F,0,0,1,0,0.26458333,0,1 @ F,0,0,1,0,0.26458333,0,1 @ F,0,0,1,0,0.26458333,0,1 @ F,0,0,1,0,0.26458333,0,1 @ F,0,0,1,0,0.26458333,0,1 @ F,0,0,1,0,0.26458333,0,1 @ F,0,0,1,0,0.26458333,0,1 | F,0,0,1,0,0.26458333,0,1 @ F,0,0,1,0,0.26458333,0,1 @ F,0,0,1,0,0.26458333,0,1 @ F,0,0,1,0,0.26458333,0,1 @ F,0,0,1,0,0.26458333,0,1 @ F,0,0,1,0,0.26458333,0,1 @ F,0,0,1,0,0.26458333,0,1 @ F,0,0,1,0,0.26458333,0,1 @ F,0,0,1,0,0.26458333,0,1 | F,0,0,1,0,0.26458333,0,1 @ F,0,0,1,0,0.26458333,0,1 @ F,0,0,1,0,0.26458333,0,1 @ F,0,0,1,0,0.26458333,0,1 @ F,0,0,1,0,0.26458333,0,1 @ F,0,0,1,0,0.26458333,0,1 @ F,0,0,1,0,0.26458333,0,1 @ F,0,0,1,0,0.26458333,0,1 @ F,0,0,1,0,0.26458333,0,1 | F,0,0,1,0,0.26458333,0,1 @ F,0,0,1,0,0.26458333,0,1 @ F,0,0,1,0,0.26458333,0,1 @ F,0,0,1,0,0.26458333,0,1 @ F,0,0,1,0,0.26458333,0,1 @ F,0,0,1,0,0.26458333,0,1 @ F,0,0,1,0,0.26458333,0,1 @ F,0,0,1,0,0.26458333,0,1 @ F,0,0,1,0,0.26458333,0,1 @ F,0,0,1,0,0.26458333,0,1 @ F,0,0,1,0,0.26458333,0,1 @ F,0,0,1,0,0.26458333,0,1 @ F,0,0,1,0,0.26458333,0,1 | F,0,0,1,0,0.26458333,0,1 @ F,0,0,1,0,0.26458333,0,1 @ F,0,0,1,0,0.26458333,0,1 @ F,0,0,1,0,0.26458333,0,1 @ F,0,0,1,0,0.26458333,0,1 @ F,0,0,1,0,0.26458333,0,1 @ F,0,0,1,0,0.26458333,0,1 @ F,0,0,1,0,0.26458333,0,1 @ F,0,0,1,0,0.26458333,0,1 | F,0,0,1,0,0.26458333,0,1 @ F,0,0,1,0,0.26458333,0,1 @ F,0,0,1,0,0.26458333,0,1 @ F,0,0,1,0,0.26458333,0,1 @ F,0,0,1,0,0.26458333,0,1 @ F,0,0,1,0,0.26458333,0,1 @ F,0,0,1,0,0.26458333,0,1 @ F,0,0,1,0,0.26458333,0,1 @ F,0,0,1,0,0.26458333,0,1 | F,0,0,1,0,0.26458333,0,1 @ F,0,0,1,0,0.26458333,0,1 @ F,0,0,1,0,0.26458333,0,1 @ F,0,0,1,0,0.26458333,0,1 @ F,0,0,1,0,0.26458333,0,1 @ F,0,0,1,0,0.26458333,0,1 @ F,0,0,1,0,0.26458333,0,1 @ F,0,0,1,0,0.26458333,0,1"
       radius="1"
       unit="px"
       method="auto"
       mode="F"
       chamfer_steps="1"
       flexible="false"
       use_knot_distance="true"
       apply_no_radius="true"
       apply_with_radius="true"
       only_selected="false"
       hide_knots="false" />
    <inkscape:path-effect
       effect="fillet_chamfer"
       id="path-effect225"
       is_visible="true"
       lpeversion="1"
       nodesatellites_param="F,0,0,1,0,0.26458333,0,1 @ F,0,0,1,0,0.26458333,0,1 @ F,0,0,1,0,0.26458333,0,1 @ F,0,0,1,0,0.26458333,0,1 @ F,0,0,1,0,0.26458333,0,1 @ F,0,0,1,0,0.26458333,0,1 @ F,0,0,1,0,0.26458333,0,1 @ F,0,0,1,0,0.26458333,0,1 @ F,0,0,1,0,0.26458333,0,1 @ F,0,0,1,0,0.26458333,0,1 @ F,0,0,1,0,0.26458333,0,1 @ F,0,0,1,0,0.26458333,0,1 | F,0,0,1,0,0.26458333,0,1 @ F,0,0,1,0,0.26458333,0,1 @ F,0,0,1,0,0.26458333,0,1 @ F,0,0,1,0,0.26458333,0,1 @ F,0,0,1,0,0.26458333,0,1 @ F,0,0,1,0,0.26458333,0,1 @ F,0,0,1,0,0.26458333,0,1 @ F,0,0,1,0,0.26458333,0,1 | F,0,0,1,0,0.26458333,0,1 @ F,0,0,1,0,0.26458333,0,1 @ F,0,0,1,0,0.26458333,0,1 @ F,0,0,1,0,0.26458333,0,1 @ F,0,0,1,0,0.26458333,0,1 @ F,0,0,1,0,0.26458333,0,1 @ F,0,0,1,0,0.26458333,0,1 @ F,0,0,1,0,0.26458333,0,1 | F,0,0,1,0,0.26458333,0,1 @ F,0,0,1,0,0.26458333,0,1 @ F,0,0,1,0,0.26458333,0,1 @ F,0,0,1,0,0.26458333,0,1 @ F,0,0,1,0,0.26458333,0,1 @ F,0,0,1,0,0.26458333,0,1 @ F,0,0,1,0,0.26458333,0,1 @ F,0,0,1,0,0.26458333,0,1 @ F,0,0,1,0,0.26458333,0,1 @ F,0,0,1,0,0.26458333,0,1 @ F,0,0,1,0,0.26458333,0,1 | F,0,0,1,0,0.26458333,0,1 @ F,0,0,1,0,0.26458333,0,1 @ F,0,0,1,0,0.26458333,0,1 @ F,0,0,1,0,0.26458333,0,1 @ F,0,0,1,0,0.26458333,0,1 @ F,0,0,1,0,0.26458333,0,1 @ F,0,0,1,0,0.26458333,0,1 | F,0,0,1,0,0.26458333,0,1 @ F,0,0,1,0,0.26458333,0,1 @ F,0,0,1,0,0.26458333,0,1 @ F,0,0,1,0,0.26458333,0,1 @ F,0,0,1,0,0.26458333,0,1 | F,0,0,1,0,0.26458333,0,1 @ F,0,0,1,0,0.26458333,0,1 @ F,0,0,1,0,0.26458333,0,1 @ F,0,0,1,0,0.26458333,0,1 | F,0,0,1,0,0.26458333,0,1 @ F,0,0,1,0,0.26458333,0,1 @ F,0,0,1,0,0.26458333,0,1 @ F,0,0,1,0,0.26458333,0,1 @ F,0,0,1,0,0.26458333,0,1 @ F,0,0,1,0,0.26458333,0,1 @ F,0,0,1,0,0.26458333,0,1 @ F,0,0,1,0,0.26458333,0,1 @ F,0,0,1,0,0.26458333,0,1 @ F,0,0,1,0,0.26458333,0,1 | F,0,0,1,0,0.26458333,0,1 @ F,0,0,1,0,0.26458333,0,1 @ F,0,0,1,0,0.26458333,0,1 @ F,0,0,1,0,0.26458333,0,1 @ F,0,0,1,0,0.26458333,0,1 @ F,0,0,1,0,0.26458333,0,1 | F,0,0,1,0,0.26458333,0,1 @ F,0,0,1,0,0.26458333,0,1 @ F,0,0,1,0,0.26458333,0,1 @ F,0,0,1,0,0.26458333,0,1 | F,0,0,1,0,0.26458333,0,1 @ F,0,0,1,0,0.26458333,0,1 @ F,0,0,1,0,0.26458333,0,1 @ F,0,0,1,0,0.26458333,0,1 @ F,0,0,1,0,0.26458333,0,1 @ F,0,0,1,0,0.26458333,0,1 @ F,0,0,1,0,0.26458333,0,1 @ F,0,0,1,0,0.26458333,0,1 @ F,0,0,1,0,0.26458333,0,1 @ F,0,0,1,0,0.26458333,0,1 @ F,0,0,1,0,0.26458333,0,1 @ F,0,0,1,0,0.26458333,0,1 @ F,0,0,1,0,0.26458333,0,1 @ F,0,0,1,0,0.26458333,0,1 @ F,0,0,1,0,0.26458333,0,1 @ F,0,0,1,0,0.26458333,0,1 @ F,0,0,1,0,0.26458333,0,1 @ F,0,0,1,0,0.26458333,0,1 @ F,0,0,1,0,0.26458333,0,1 @ F,0,0,1,0,0.26458333,0,1 | F,0,0,1,0,0.26458333,0,1 @ F,0,0,1,0,0.26458333,0,1 @ F,0,0,1,0,0.26458333,0,1 @ F,0,0,1,0,0.26458333,0,1 @ F,0,0,1,0,0.26458333,0,1 @ F,0,0,1,0,0.26458333,0,1 @ F,0,0,1,0,0.26458333,0,1 @ F,0,0,1,0,0.26458333,0,1 @ F,0,0,1,0,0.26458333,0,1 @ F,0,0,1,0,0.26458333,0,1 @ F,0,0,1,0,0.26458333,0,1 @ F,0,0,1,0,0.26458333,0,1 | F,0,0,1,0,0.26458333,0,1 @ F,0,0,1,0,0.26458333,0,1 @ F,0,0,1,0,0.26458333,0,1 @ F,0,0,1,0,0.26458333,0,1 @ F,0,0,1,0,0.26458333,0,1 @ F,0,0,1,0,0.26458333,0,1 @ F,0,0,1,0,0.26458333,0,1 @ F,0,0,1,0,0.26458333,0,1"
       radius="1"
       unit="px"
       method="auto"
       mode="F"
       chamfer_steps="1"
       flexible="false"
       use_knot_distance="true"
       apply_no_radius="true"
       apply_with_radius="true"
       only_selected="false"
       hide_knots="false" />
    <filter
       style="color-interpolation-filters:sRGB"
       inkscape:label="Blur"
       id="filter49"
       x="-0.0044813063"
       y="-0.046209637"
       width="1.0089626"
       height="1.0924193">
      <feGaussianBlur
         stdDeviation="0.15 0.15"
         result="blur"
         id="feGaussianBlur49" />
    </filter>
    <filter
       style="color-interpolation-filters:sRGB"
       inkscape:label="Lightness-Contrast"
       id="filter225"
       x="0"
       y="0"
       width="1"
       height="1">
      <feColorMatrix
         values="0.786441 0 0 -0.118087 0.10678 0 0.786441 0 -0.118087 0.10678 0 0 0.786441 -0.118087 0.10678 0 0 0 1 0"
         id="feColorMatrix225"
         result="fbSourceGraphic" />
      <feColorMatrix
         result="fbSourceGraphicAlpha"
         in="fbSourceGraphic"
         values="0 0 0 -1 0 0 0 0 -1 0 0 0 0 -1 0 0 0 0 1 0"
         id="feColorMatrix226" />
      <feColorMatrix
         id="feColorMatrix227"
         values="0.786441 0 0 -0.118087 0.10678 0 0.786441 0 -0.118087 0.10678 0 0 0.786441 -0.118087 0.10678 0 0 0 1 0"
         in="fbSourceGraphic" />
    </filter>
    <filter
       style="color-interpolation-filters:sRGB;"
       inkscape:label="Lightness-Contrast"
       id="filter228"
       x="0"
       y="0"
       width="1"
       height="1">
      <feColorMatrix
         values="0.786441 0 0 -0.172588 0.10678 0 0.786441 0 -0.172588 0.10678 0 0 0.786441 -0.172588 0.10678 0 0 0 1 0"
         id="feColorMatrix228"
         result="fbSourceGraphic" />
      <feColorMatrix
         result="fbSourceGraphicAlpha"
         in="fbSourceGraphic"
         values="0 0 0 -1 0 0 0 0 -1 0 0 0 0 -1 0 0 0 0 1 0"
         id="feColorMatrix233" />
      <feColorMatrix
         id="feColorMatrix234"
         values="0.786441 0 0 -0.14231 0.10678 0 0.786441 0 -0.14231 0.10678 0 0 0.786441 -0.14231 0.10678 0 0 0 1 0"
         in="fbSourceGraphic" />
    </filter>
  </defs>
  <g
     inkscape:label="Layer 1"
     inkscape:groupmode="layer"
     id="layer1"
     transform="translate(-107.03574,-151.12727)">
    <path
       d="m 112.23046,154.94068 0.14601,0.25486 c 0.0726,0.1268 0.0463,0.31297 -0.0733,0.39648 -0.0102,0.007 -0.0206,0.0142 -0.0312,0.0214 -0.12104,0.0818 -0.32689,0.19951 -0.45503,0.26974 -0.21418,0.11739 -0.40882,0.21089 -0.58391,0.28051 -0.13571,0.0539 -0.3633,0.12174 -0.50678,0.1491 -0.15248,0.0291 -0.31829,0.0483 -0.49745,0.0577 -0.14589,0.008 -0.38302,0.008 -0.52888,-6.9e-4 -0.56321,-0.0321 -1.04651,-0.16884 -1.44991,-0.41031 -0.12532,-0.075 -0.31548,-0.21762 -0.4224,-0.31713 -0.13817,-0.1286 -0.25904,-0.27119 -0.36258,-0.42777 -0.0806,-0.12184 -0.19086,-0.33244 -0.24548,-0.4679 -0.0926,-0.22973 -0.15059,-0.47332 -0.17389,-0.73078 -0.0132,-0.14549 -0.0131,-0.38297 -4.8e-4,-0.5285 0.0359,-0.41378 0.15798,-0.78876 0.3661,-1.12493 0.0769,-0.1242 0.22264,-0.31196 0.32395,-0.41717 0.47649,-0.49489 1.13139,-0.76553 1.96469,-0.81195 0.14587,-0.008 0.383,-0.008 0.52891,-5.2e-4 0.17915,0.009 0.34497,0.0286 0.49745,0.0577 0.14346,0.0274 0.37088,0.0958 0.50645,0.15016 0.17368,0.0697 0.36826,0.16318 0.58374,0.28043 0.12831,0.0698 0.33529,0.18588 0.45491,0.2697 0.0132,0.009 0.026,0.0184 0.0385,0.0276 0.11743,0.0865 0.13929,0.27739 0.0666,0.40419 l -0.14601,0.25486 c -0.0726,0.1268 -0.21542,0.14575 -0.3257,0.0499 -0.0546,-0.0474 -0.10721,-0.0903 -0.1578,-0.12867 -0.11634,-0.0881 -0.32388,-0.20414 -0.45715,-0.26396 -0.29521,-0.13252 -0.60185,-0.21303 -0.91994,-0.24155 -0.1455,-0.013 -0.38293,-0.0131 -0.52856,-0.001 -0.36698,0.0293 -0.68261,0.12182 -0.94689,0.27741 -0.1258,0.0741 -0.3114,0.22376 -0.41141,0.33013 -0.23386,0.24876 -0.37399,0.54493 -0.42039,0.88853 -0.0195,0.14472 -0.0196,0.383 2.7e-4,0.52766 0.0467,0.34099 0.18709,0.63682 0.42106,0.8875 0.0996,0.10675 0.28532,0.25636 0.41173,0.32938 0.26402,0.15251 0.57923,0.24317 0.94562,0.27199 0.14564,0.0114 0.38307,0.0114 0.52856,-0.002 0.31809,-0.0285 0.62474,-0.10903 0.91994,-0.24155 0.13328,-0.0598 0.33989,-0.17707 0.45785,-0.26317 0.0478,-0.0349 0.0977,-0.0734 0.14978,-0.11544 0.11362,-0.0918 0.26039,-0.0686 0.33303,0.0582 z m 6.38897,0 0.14601,0.25486 c 0.0726,0.1268 0.0463,0.31297 -0.0734,0.39648 -0.0102,0.007 -0.0206,0.0142 -0.0312,0.0214 -0.12104,0.0818 -0.32689,0.19951 -0.45503,0.26974 -0.21418,0.11739 -0.40882,0.21089 -0.58391,0.28051 -0.13571,0.0539 -0.3633,0.12174 -0.50678,0.1491 -0.15248,0.0291 -0.31829,0.0483 -0.49744,0.0577 -0.14589,0.008 -0.38302,0.008 -0.52888,-6.9e-4 -0.56321,-0.0321 -1.04651,-0.16884 -1.44992,-0.41031 -0.12532,-0.075 -0.31548,-0.21762 -0.4224,-0.31713 -0.13817,-0.1286 -0.25903,-0.27119 -0.36257,-0.42776 -0.0806,-0.12185 -0.19086,-0.33245 -0.24548,-0.46791 -0.0926,-0.22973 -0.1506,-0.47332 -0.1739,-0.73078 -0.0132,-0.14549 -0.0131,-0.38297 -4.8e-4,-0.5285 0.0359,-0.41378 0.15798,-0.78876 0.3661,-1.12493 0.0769,-0.1242 0.22265,-0.31196 0.32395,-0.41717 0.4765,-0.49489 1.13139,-0.76553 1.9647,-0.81195 0.14587,-0.008 0.383,-0.008 0.52891,-5.2e-4 0.17915,0.009 0.34496,0.0286 0.49744,0.0577 0.14346,0.0274 0.37088,0.0958 0.50645,0.15016 0.17368,0.0697 0.36826,0.16318 0.58374,0.28043 0.12831,0.0698 0.33529,0.18588 0.45491,0.2697 0.0132,0.009 0.026,0.0184 0.0385,0.0276 0.11743,0.0865 0.13929,0.27739 0.0666,0.40419 l -0.14601,0.25486 c -0.0726,0.1268 -0.21542,0.14575 -0.3257,0.0499 -0.0546,-0.0474 -0.10721,-0.0903 -0.1578,-0.12867 -0.11634,-0.0881 -0.32388,-0.20414 -0.45715,-0.26396 -0.29521,-0.13252 -0.60185,-0.21303 -0.91994,-0.24155 -0.1455,-0.013 -0.38293,-0.0131 -0.52856,-0.001 -0.36697,0.0293 -0.6826,0.12182 -0.94688,0.27741 -0.1258,0.0741 -0.3114,0.22376 -0.41141,0.33013 -0.23386,0.24876 -0.374,0.54493 -0.4204,0.88853 -0.0195,0.14472 -0.0196,0.383 2.7e-4,0.52766 0.0467,0.34099 0.18709,0.63682 0.42107,0.8875 0.0996,0.10675 0.28532,0.25636 0.41173,0.32938 0.26402,0.15251 0.57922,0.24317 0.94561,0.27199 0.14564,0.0114 0.38307,0.0114 0.52856,-0.002 0.31809,-0.0285 0.62474,-0.10903 0.91994,-0.24155 0.13328,-0.0598 0.33989,-0.17707 0.45785,-0.26316 0.0478,-0.0349 0.0977,-0.0734 0.14978,-0.11544 0.11362,-0.0918 0.26039,-0.0686 0.33303,0.0582 z m 2.5386,-0.45589 v 1.53852 a 0.26458333,0.26458333 135 0 1 -0.26458,0.26458 l -0.46005,0 a 0.26458333,0.26458333 45 0 1 -0.26458,-0.26458 l 0,-4.54334 a 0.26458333,0.26458333 135 0 1 0.26458,-0.26458 h 2.34922 c 0.14612,0 0.38308,-6.6e-4 0.52912,0.004 0.14034,0.004 0.26741,0.0126 0.38122,0.0245 0.14526,0.0152 0.37907,0.0592 0.51668,0.10801 0.0315,0.0112 0.0623,0.0231 0.0924,0.0359 0.13426,0.0572 0.33294,0.19173 0.42991,0.30061 0.0335,0.0376 0.0647,0.0777 0.0937,0.12012 0.0822,0.12057 0.17132,0.34258 0.20418,0.48482 0.0127,0.0551 0.0229,0.11112 0.0306,0.16803 0.0195,0.14472 0.02,0.38302 -2.7e-4,0.52761 -0.0836,0.5955 -0.46464,0.9745 -1.14319,1.13701 -0.14205,0.034 -0.19275,0.1472 -0.11004,0.26767 l 1.15083,1.67607 a 0.13928012,0.13928012 117.7629 0 1 -0.11482,0.21812 h -0.5493 a 0.50428667,0.50428667 27.684581 0 1 -0.41494,-0.21771 l -1.12732,-1.63226 a 0.50426968,0.50426968 27.683787 0 0 -0.41494,-0.2177 l -0.91375,2e-5 a 0.26459066,0.26459066 134.99921 0 0 -0.26458,0.26459 z m 0.26458,-1.10504 h 1.24101 c 0.14612,0 0.38307,9e-4 0.52913,-0.003 0.005,-1.4e-4 0.01,-2.9e-4 0.0146,-4.4e-4 0.14598,-0.005 0.38349,-0.0316 0.51951,-0.0841 0.0316,-0.0122 0.17355,-0.0733 0.25908,-0.19006 0.0275,-0.0375 0.0498,-0.0789 0.067,-0.12429 0.0515,-0.13595 0.0516,-0.38321 0.001,-0.51957 -0.0171,-0.0462 -0.0394,-0.0882 -0.0669,-0.12596 -0.0853,-0.11682 -0.30956,-0.22389 -0.45244,-0.25194 -0.0309,-0.006 -0.17403,-0.0232 -0.32003,-0.0278 -0.007,-2.3e-4 -0.0146,-4.4e-4 -0.022,-6.5e-4 -0.14604,-0.004 -0.38298,-0.003 -0.5291,-0.003 l -1.24101,0 a 0.26458333,0.26458333 135 0 0 -0.26458,0.26458 l 0,0.80212 a 0.26458333,0.26458333 45 0 0 0.26458,0.26458 z m 8.12831,1.61398 h -1.8509 a 0.42810482,0.42810482 148.28253 0 0 -0.38291,0.23665 l -0.41042,0.82086 a 0.42810482,0.42810482 148.28253 0 1 -0.38291,0.23665 h -0.37824 a 0.16901186,0.16901186 57.430171 0 1 -0.15335,-0.24007 l 2.12785,-4.59236 a 0.4141978,0.4141978 147.43017 0 1 0.37581,-0.24007 h 0.34849 a 0.41861963,0.41861963 32.294425 0 1 0.37812,0.23899 l 2.18273,4.59452 a 0.1672266,0.1672266 122.29442 0 1 -0.15104,0.23899 l -0.52699,0 a 0.42810482,0.42810482 31.717474 0 1 -0.38291,-0.23665 l -0.41042,-0.82086 a 0.42810482,0.42810482 31.717474 0 0 -0.38291,-0.23665 z m -0.12189,-0.92816 -0.66998,-1.33444 a 0.13392287,0.13392287 0.18762742 0 0 -0.23897,-7.9e-4 l -0.68175,1.33602 a 0.16202709,0.16202709 58.517286 0 0 0.14432,0.23567 h 1.30051 a 0.16322086,0.16322086 121.67034 0 0 0.14587,-0.23646 z m 6.54198,-1.10264 -1.25119,3.07983 a 0.39307032,0.39307032 146.05473 0 1 -0.36416,0.24513 h -0.19229 a 0.38087788,0.38087788 34.786437 0 1 -0.35692,-0.24795 l -1.7045,-4.5766 a 0.18379733,0.18379733 124.78644 0 1 0.17224,-0.24795 h 0.49724 a 0.38454973,0.38454973 34.529298 0 1 0.35915,0.24711 l 1.0604,2.77092 a 0.10455374,0.10455374 0.62073089 0 0 0.19447,0.002 l 1.13154,-2.77514 a 0.39361438,0.39361438 146.09143 0 1 0.36448,-0.245 h 0.46005 a 0.38718949,0.38718949 34.346485 0 1 0.36072,0.2465 l 1.08701,2.78702 a 0.1040925,0.1040925 0.16866308 0 0 0.19373,5.7e-4 l 1.10641,-2.78816 a 0.38964689,0.38964689 145.82218 0 1 0.36217,-0.24593 h 0.44518 a 0.18304189,0.18304189 55.324055 0 1 0.17128,0.24759 l -1.72489,4.57732 a 0.38244983,0.38244983 145.32406 0 1 -0.35788,0.24759 l -0.19973,0 a 0.39307032,0.39307032 33.945269 0 1 -0.36416,-0.24513 l -1.25119,-3.07983 a 0.10748705,0.10748705 0 0 0 -0.19916,0 z m 6.13154,1.37311 v 1.68727 a 0.26458333,0.26458333 135 0 1 -0.26458,0.26458 h -0.46005 a 0.26458333,0.26458333 45 0 1 -0.26458,-0.26458 v -4.54334 a 0.26458333,0.26458333 135 0 1 0.26458,-0.26458 h 3.99295 a 0.26458333,0.26458333 45 0 1 0.26458,0.26458 l 0,0.30386 a 0.26458333,0.26458333 135 0 1 -0.26458,0.26458 l -3.00374,0 a 0.26458333,0.26458333 135 0 0 -0.26458,0.26458 v 0.68318 a 0.26458333,0.26458333 45 0 0 0.26458,0.26458 l 1.91784,0 a 0.26458333,0.26458333 45 0 1 0.26458,0.26458 v 0.28155 a 0.26458333,0.26458333 135 0 1 -0.26458,0.26458 l -1.91784,0 a 0.26458333,0.26458333 135 0 0 -0.26458,0.26458 z m 7.30793,-3.2023 c 0.64225,0.0378 1.17591,0.2165 1.60099,0.53605 0.11673,0.0878 0.29008,0.25039 0.38634,0.36025 0.35946,0.41017 0.5624,0.90584 0.60884,1.48702 0.0116,0.14563 0.0118,0.38314 -0.003,0.52848 -0.0301,0.30139 -0.11223,0.58974 -0.24649,0.86508 -0.064,0.13129 -0.1877,0.33415 -0.27547,0.45091 -0.46503,0.61856 -1.15304,0.95457 -2.06402,1.00802 -0.1459,0.009 -0.38311,0.009 -0.52895,-2e-4 -0.63404,-0.0382 -1.16278,-0.21676 -1.58621,-0.53576 -0.11665,-0.0879 -0.28875,-0.25185 -0.38311,-0.36335 -0.12613,-0.14905 -0.23489,-0.31201 -0.32627,-0.48888 -0.0671,-0.12979 -0.15525,-0.35043 -0.19515,-0.49093 -0.0438,-0.1542 -0.0733,-0.31239 -0.0886,-0.47457 -0.0137,-0.14544 -0.0137,-0.38297 -4.3e-4,-0.52845 0.0291,-0.3192 0.11182,-0.61985 0.24811,-0.90195 0.0635,-0.13152 0.18646,-0.3349 0.2741,-0.45175 0.45129,-0.6017 1.13469,-0.93402 2.0502,-0.99697 0.14578,-0.01 0.38294,-0.0116 0.5288,-0.003 z m -0.52151,0.86191 c -0.28963,0.0321 -0.54728,0.11877 -0.77296,0.25998 -0.12375,0.0774 -0.30432,0.23329 -0.40004,0.34353 -0.21749,0.25047 -0.34792,0.54665 -0.39128,0.88854 -0.0184,0.14488 -0.0184,0.38299 2e-5,0.52785 0.0433,0.34069 0.17337,0.63476 0.39016,0.88221 0.0962,0.10982 0.27739,0.26499 0.40122,0.3423 0.22697,0.14168 0.48707,0.22848 0.78028,0.2604 0.14521,0.0158 0.38302,0.0158 0.52818,-2.7e-4 0.28963,-0.0321 0.54728,-0.11878 0.77296,-0.25999 0.12375,-0.0774 0.30497,-0.23278 0.39943,-0.34406 0.0538,-0.0633 0.1026,-0.13084 0.1465,-0.2025 0.0763,-0.1245 0.1687,-0.34436 0.20562,-0.48562 0.0148,-0.0565 0.0266,-0.11337 0.0356,-0.17052 0.0225,-0.14424 0.0225,-0.38251 0.005,-0.52756 -0.0419,-0.3583 -0.17222,-0.66245 -0.39091,-0.91247 -0.0961,-0.10989 -0.27921,-0.26285 -0.40374,-0.33903 -0.22836,-0.13968 -0.48785,-0.22656 -0.77845,-0.26062 -0.14507,-0.017 -0.38288,-0.0183 -0.52804,-0.002 z m 5.26963,2.48914 v 1.53852 a 0.26458333,0.26458333 135 0 1 -0.26458,0.26458 h -0.46005 a 0.26458333,0.26458333 45 0 1 -0.26458,-0.26458 l 0,-4.54334 a 0.26458333,0.26458333 135 0 1 0.26458,-0.26458 h 2.34922 c 0.14612,0 0.38308,-6.6e-4 0.52912,0.004 0.14034,0.004 0.26741,0.0126 0.38122,0.0245 0.14526,0.0152 0.37907,0.0592 0.51668,0.10801 0.0315,0.0112 0.0623,0.0231 0.0924,0.0359 0.13426,0.0572 0.33294,0.19173 0.42991,0.30061 0.0335,0.0376 0.0647,0.0777 0.0937,0.12012 0.0822,0.12057 0.17132,0.34258 0.20418,0.48482 0.0127,0.0551 0.0229,0.11112 0.0306,0.16803 0.0195,0.14472 0.02,0.38302 -2.7e-4,0.52761 -0.0836,0.5955 -0.46464,0.9745 -1.14319,1.13701 -0.14205,0.034 -0.19275,0.1472 -0.11004,0.26767 l 1.15083,1.67607 a 0.13928012,0.13928012 117.7629 0 1 -0.11482,0.21812 h -0.5493 a 0.50428667,0.50428667 27.684581 0 1 -0.41494,-0.21771 l -1.12732,-1.63226 a 0.50426968,0.50426968 27.683787 0 0 -0.41494,-0.2177 l -0.91375,2e-5 a 0.26459066,0.26459066 134.99921 0 0 -0.26458,0.26459 z m 0.26458,-1.10504 h 1.24101 c 0.14612,0 0.38307,9e-4 0.52913,-0.003 0.005,-1.4e-4 0.01,-2.9e-4 0.0146,-4.4e-4 0.14598,-0.005 0.38349,-0.0316 0.51951,-0.0841 0.0316,-0.0122 0.17355,-0.0733 0.25908,-0.19006 0.0275,-0.0375 0.0498,-0.0789 0.067,-0.12429 0.0515,-0.13595 0.0516,-0.38321 0.001,-0.51957 -0.0171,-0.0462 -0.0394,-0.0882 -0.0669,-0.12596 -0.0853,-0.11682 -0.30956,-0.22389 -0.45244,-0.25194 -0.0309,-0.006 -0.17403,-0.0232 -0.32003,-0.0278 -0.007,-2.3e-4 -0.0146,-4.4e-4 -0.022,-6.5e-4 -0.14604,-0.004 -0.38298,-0.003 -0.5291,-0.003 h -1.24101 a 0.26458333,0.26458333 135 0 0 -0.26458,0.26458 v 0.80212 a 0.26458333,0.26458333 45 0 0 0.26458,0.26458 z m 5.16919,-2.16436 2.00709,0 c 0.14612,0 0.38309,-6.8e-4 0.52911,0.005 0.35116,0.0129 0.64821,0.0523 0.89118,0.11832 0.14078,0.0383 0.35925,0.1325 0.48401,0.20839 0.27232,0.16564 0.49435,0.38679 0.66611,0.66347 0.077,0.12409 0.17769,0.33952 0.22501,0.4777 0.0831,0.24263 0.13415,0.50906 0.15315,0.7993 0.01,0.14579 0.01,0.38301 8e-5,0.5288 -0.0414,0.63802 -0.23664,1.15447 -0.58563,1.54935 -0.0967,0.10942 -0.27572,0.26639 -0.3979,0.34635 -0.10054,0.0658 -0.20732,0.12245 -0.32034,0.16995 -0.13465,0.0566 -0.36414,0.11877 -0.50813,0.1433 -0.17898,0.0305 -0.38151,0.0499 -0.60759,0.0582 -0.14599,0.005 -0.38294,0.005 -0.52906,0.005 h -2.00709 a 0.26458333,0.26458333 45 0 1 -0.26458,-0.26458 l 0,-4.54334 a 0.26458333,0.26458333 135 0 1 0.26458,-0.26458 z m 0.98921,4.23948 h 0.92119 c 0.14612,0 0.38318,0.001 0.52901,-0.008 0.20143,-0.0124 0.37604,-0.0396 0.52383,-0.0818 0.14013,-0.04 0.35349,-0.14897 0.46666,-0.241 0.29787,-0.24221 0.46842,-0.61174 0.51167,-1.10857 0.0127,-0.14549 0.0127,-0.38295 -3.2e-4,-0.52844 -0.0275,-0.30753 -0.10508,-0.56778 -0.2327,-0.78075 -0.075,-0.12514 -0.23751,-0.30155 -0.35721,-0.3849 -0.0326,-0.0227 -0.0664,-0.0439 -0.10121,-0.0635 -0.12715,-0.0716 -0.35524,-0.14295 -0.49916,-0.16746 -0.0952,-0.0162 -0.19909,-0.0278 -0.31161,-0.0347 -0.1458,-0.009 -0.38284,-0.008 -0.52896,-0.008 h -0.92119 a 0.26458333,0.26458333 135 0 0 -0.26458,0.26458 l 0,2.8773 a 0.26458333,0.26458333 45 0 0 0.26458,0.26458 z"
       id="text57"
       style="font-size:7.61619px;line-height:0.85;font-family:'Media Gothic';-inkscape-font-specification:'Media Gothic';text-align:center;letter-spacing:0px;word-spacing:0px;text-anchor:middle;fill:#646464;stroke-width:1.32292;stroke-linecap:square;stroke-miterlimit:8;filter:url(#filter228)"
       aria-label="CCRAWFORD5"
       inkscape:path-effect="#path-effect227"
       inkscape:original-d="m 112.09893,154.7111 0.40907,0.71402 q -0.14875,0.14875 -0.46113,0.32725 -0.63221,0.37189 -1.06359,0.49833 -0.42395,0.12644 -1.01897,0.12644 -1.18259,0 -1.93379,-0.56526 -0.44626,-0.3347 -0.69915,-0.82559 -0.2975,-0.55782 -0.2975,-1.23465 0,-0.92228 0.52807,-1.60654 0.79583,-1.01897 2.40237,-1.01897 0.59502,0 1.01897,0.12644 0.42395,0.12645 1.06359,0.49833 0.30494,0.17107 0.46113,0.34213 l -0.40907,0.71402 q -0.32726,-0.31982 -0.5727,-0.4537 -0.66939,-0.37188 -1.4206,-0.37188 -0.89252,0 -1.42804,0.43882 -0.6322,0.50576 -0.6322,1.33135 0,0.81814 0.6322,1.33134 0.53552,0.43139 1.42804,0.43139 0.75121,0 1.4206,-0.37189 0.238,-0.13387 0.5727,-0.43138 z m 6.38897,0 0.40907,0.71402 q -0.14875,0.14875 -0.46113,0.32725 -0.63221,0.37189 -1.06359,0.49833 -0.42395,0.12644 -1.01896,0.12644 -1.1826,0 -1.9338,-0.56526 -0.44626,-0.3347 -0.69914,-0.82559 -0.29751,-0.55782 -0.29751,-1.23465 0,-0.92228 0.52807,-1.60654 0.79584,-1.01897 2.40238,-1.01897 0.59501,0 1.01896,0.12644 0.42395,0.12645 1.06359,0.49833 0.30494,0.17107 0.46113,0.34213 l -0.40907,0.71402 q -0.32726,-0.31982 -0.5727,-0.4537 -0.66939,-0.37188 -1.4206,-0.37188 -0.89252,0 -1.42803,0.43882 -0.63221,0.50576 -0.63221,1.33135 0,0.81814 0.63221,1.33134 0.53551,0.43139 1.42803,0.43139 0.75121,0 1.4206,-0.37189 0.23801,-0.13387 0.5727,-0.43138 z m 2.67013,-0.49089 v 2.06768 h -0.98921 v -5.0725 h 2.87838 q 0.5727,0 0.9074,0.0669 0.3347,0.0669 0.58014,0.23056 0.27519,0.19338 0.41651,0.52808 0.12644,0.31982 0.12644,0.68427 0,1.24209 -1.4206,1.45034 l 1.45035,2.11231 h -1.07846 l -1.42804,-2.06768 z m 0,-0.84046 h 1.77017 q 0.38676,0 0.54295,-0.0223 0.16363,-0.0223 0.31238,-0.0892 0.31239,-0.15619 0.31239,-0.55039 0,-0.40164 -0.31239,-0.55039 -0.14131,-0.0744 -0.30494,-0.0967 -0.15619,-0.0223 -0.55039,-0.0223 h -1.77017 z m 8.65747,1.61398 h -2.38006 l -0.64708,1.29416 h -0.9074 l 2.35031,-5.0725 h 0.87765 l 2.40981,5.0725 h -1.05615 z m -0.26776,-0.6917 -0.9074,-1.80736 -0.92227,1.80736 z m 6.52285,-1.58423 -1.45035,3.57009 h -0.72145 l -1.88918,-5.0725 h 1.0264 l 1.24954,3.26514 1.33134,-3.26514 h 0.98921 l 1.27929,3.28002 1.30159,-3.28002 h 0.97434 l -1.91149,5.0725 h -0.72889 z m 6.03196,1.35366 v 2.21643 h -0.98921 v -5.0725 h 4.52211 v 0.83302 h -3.5329 v 1.21234 h 2.447 v 0.81071 z m 7.04349,-2.94533 q 1.30903,0 2.06768,0.71402 0.80327,0.75121 0.80327,1.94124 0,0.72889 -0.38676,1.36109 -0.75121,1.23466 -2.47675,1.23466 -1.29416,0 -2.0528,-0.71402 -0.40164,-0.38676 -0.61733,-0.92227 -0.18594,-0.46858 -0.18594,-0.98921 0,-0.76608 0.38676,-1.39829 0.72145,-1.2049 2.46187,-1.22722 z m 0.007,0.85534 q -0.75121,0 -1.24953,0.43138 -0.59502,0.5132 -0.59502,1.33879 0,0.82558 0.59502,1.33134 0.49832,0.43139 1.25697,0.43139 0.7512,0 1.24953,-0.43139 0.29751,-0.25288 0.4537,-0.62476 0.14131,-0.3347 0.14131,-0.68427 0,-0.86277 -0.59501,-1.3611 -0.50576,-0.42394 -1.25697,-0.43138 z m 5.00556,2.23874 v 2.06768 h -0.98921 v -5.0725 h 2.87838 q 0.5727,0 0.9074,0.0669 0.3347,0.0669 0.58014,0.23056 0.27519,0.19338 0.41651,0.52808 0.12644,0.31982 0.12644,0.68427 0,1.24209 -1.4206,1.45034 l 1.45035,2.11231 h -1.07846 l -1.42804,-2.06768 z m 0,-0.84046 h 1.77017 q 0.38676,0 0.54295,-0.0223 0.16363,-0.0223 0.31238,-0.0892 0.31239,-0.15619 0.31239,-0.55039 0,-0.40164 -0.31239,-0.55039 -0.14131,-0.0744 -0.30494,-0.0967 -0.15619,-0.0223 -0.55039,-0.0223 h -1.77017 z m 5.16919,-2.16436 h 2.53625 q 0.91484,0 1.40572,0.20825 0.69171,0.31238 1.0264,1.01896 0.26032,0.55783 0.26032,1.30904 0,1.30903 -0.78095,2.00073 -0.3347,0.29007 -0.78096,0.41651 -0.43882,0.11901 -1.13053,0.11901 h -2.53625 z m 0.98921,4.23948 h 1.45035 q 0.68427,0 1.03384,-0.18595 0.74377,-0.38675 0.74377,-1.51728 0,-0.81815 -0.40164,-1.25697 -0.22313,-0.23801 -0.54295,-0.34214 -0.31982,-0.10412 -0.83302,-0.10412 H 160.317 Z" />
  </g>
</svg>
