<?xml version="1.0" encoding="UTF-8" standalone="no"?>
<!-- Created with Inkscape (http://www.inkscape.org/) -->

<svg
   width="201.64641"
   height="19.555214"
   viewBox="0 0 53.352279 5.1739837"
   version="1.1"
   id="svg1"
   inkscape:export-filename="MFLogo.png"
   inkscape:export-xdpi="96"
   inkscape:export-ydpi="96"
   inkscape:version="1.3.2 (091e20e, 2023-11-25, custom)"
   sodipodi:docname="CCrawfordLogo.svg"
   xmlns:inkscape="http://www.inkscape.org/namespaces/inkscape"
   xmlns:sodipodi="http://sodipodi.sourceforge.net/DTD/sodipodi-0.dtd"
   xmlns="http://www.w3.org/2000/svg"
   xmlns:svg="http://www.w3.org/2000/svg">
  <sodipodi:namedview
     id="namedview1"
     pagecolor="#000000"
     bordercolor="#000000"
     borderopacity="0.25"
     inkscape:showpageshadow="2"
     inkscape:pageopacity="0.0"
     inkscape:pagecheckerboard="0"
     inkscape:deskcolor="#d1d1d1"
     inkscape:document-units="mm"
     inkscape:export-bgcolor="#000000ff"
     inkscape:zoom="6.5780584"
     inkscape:cx="131.49777"
     inkscape:cy="54.119313"
     inkscape:window-width="3840"
     inkscape:window-height="2054"
     inkscape:window-x="2869"
     inkscape:window-y="-11"
     inkscape:window-maximized="1"
     inkscape:current-layer="layer1" />
  <defs
     id="defs1">
    <inkscape:path-effect
       effect="fillet_chamfer"
       id="path-effect225"
       is_visible="true"
       lpeversion="1"
       nodesatellites_param="F,0,0,1,0,0.26458333,0,1 @ F,0,0,1,0,0.26458333,0,1 @ F,0,0,1,0,0.26458333,0,1 @ F,0,0,1,0,0.26458333,0,1 @ F,0,0,1,0,0.26458333,0,1 @ F,0,0,1,0,0.26458333,0,1 @ F,0,0,1,0,0.26458333,0,1 @ F,0,0,1,0,0.26458333,0,1 @ F,0,0,1,0,0.26458333,0,1 @ F,0,0,1,0,0.26458333,0,1 @ F,0,0,1,0,0.26458333,0,1 @ F,0,0,1,0,0.26458333,0,1 | F,0,0,1,0,0.26458333,0,1 @ F,0,0,1,0,0.26458333,0,1 @ F,0,0,1,0,0.26458333,0,1 @ F,0,0,1,0,0.26458333,0,1 @ F,0,0,1,0,0.26458333,0,1 @ F,0,0,1,0,0.26458333,0,1 @ F,0,0,1,0,0.26458333,0,1 @ F,0,0,1,0,0.26458333,0,1 | F,0,0,1,0,0.26458333,0,1 @ F,0,0,1,0,0.26458333,0,1 @ F,0,0,1,0,0.26458333,0,1 @ F,0,0,1,0,0.26458333,0,1 @ F,0,0,1,0,0.26458333,0,1 @ F,0,0,1,0,0.26458333,0,1 @ F,0,0,1,0,0.26458333,0,1 @ F,0,0,1,0,0.26458333,0,1 | F,0,0,1,0,0.26458333,0,1 @ F,0,0,1,0,0.26458333,0,1 @ F,0,0,1,0,0.26458333,0,1 @ F,0,0,1,0,0.26458333,0,1 @ F,0,0,1,0,0.26458333,0,1 @ F,0,0,1,0,0.26458333,0,1 @ F,0,0,1,0,0.26458333,0,1 @ F,0,0,1,0,0.26458333,0,1 @ F,0,0,1,0,0.26458333,0,1 @ F,0,0,1,0,0.26458333,0,1 @ F,0,0,1,0,0.26458333,0,1 | F,0,0,1,0,0.26458333,0,1 @ F,0,0,1,0,0.26458333,0,1 @ F,0,0,1,0,0.26458333,0,1 @ F,0,0,1,0,0.26458333,0,1 @ F,0,0,1,0,0.26458333,0,1 @ F,0,0,1,0,0.26458333,0,1 @ F,0,0,1,0,0.26458333,0,1 | F,0,0,1,0,0.26458333,0,1 @ F,0,0,1,0,0.26458333,0,1 @ F,0,0,1,0,0.26458333,0,1 @ F,0,0,1,0,0.26458333,0,1 @ F,0,0,1,0,0.26458333,0,1 | F,0,0,1,0,0.26458333,0,1 @ F,0,0,1,0,0.26458333,0,1 @ F,0,0,1,0,0.26458333,0,1 @ F,0,0,1,0,0.26458333,0,1 | F,0,0,1,0,0.26458333,0,1 @ F,0,0,1,0,0.26458333,0,1 @ F,0,0,1,0,0.26458333,0,1 @ F,0,0,1,0,0.26458333,0,1 @ F,0,0,1,0,0.26458333,0,1 @ F,0,0,1,0,0.26458333,0,1 @ F,0,0,1,0,0.26458333,0,1 @ F,0,0,1,0,0.26458333,0,1 @ F,0,0,1,0,0.26458333,0,1 @ F,0,0,1,0,0.26458333,0,1 | F,0,0,1,0,0.26458333,0,1 @ F,0,0,1,0,0.26458333,0,1 @ F,0,0,1,0,0.26458333,0,1 @ F,0,0,1,0,0.26458333,0,1 @ F,0,0,1,0,0.26458333,0,1 @ F,0,0,1,0,0.26458333,0,1 | F,0,0,1,0,0.26458333,0,1 @ F,0,0,1,0,0.26458333,0,1 @ F,0,0,1,0,0.26458333,0,1 @ F,0,0,1,0,0.26458333,0,1 | F,0,0,1,0,0.26458333,0,1 @ F,0,0,1,0,0.26458333,0,1 @ F,0,0,1,0,0.26458333,0,1 @ F,0,0,1,0,0.26458333,0,1 @ F,0,0,1,0,0.26458333,0,1 @ F,0,0,1,0,0.26458333,0,1 @ F,0,0,1,0,0.26458333,0,1 @ F,0,0,1,0,0.26458333,0,1 @ F,0,0,1,0,0.26458333,0,1 @ F,0,0,1,0,0.26458333,0,1 @ F,0,0,1,0,0.26458333,0,1 @ F,0,0,1,0,0.26458333,0,1 @ F,0,0,1,0,0.26458333,0,1 @ F,0,0,1,0,0.26458333,0,1 @ F,0,0,1,0,0.26458333,0,1 @ F,0,0,1,0,0.26458333,0,1 @ F,0,0,1,0,0.26458333,0,1 @ F,0,0,1,0,0.26458333,0,1 @ F,0,0,1,0,0.26458333,0,1 @ F,0,0,1,0,0.26458333,0,1 | F,0,0,1,0,0.26458333,0,1 @ F,0,0,1,0,0.26458333,0,1 @ F,0,0,1,0,0.26458333,0,1 @ F,0,0,1,0,0.26458333,0,1 @ F,0,0,1,0,0.26458333,0,1 @ F,0,0,1,0,0.26458333,0,1 @ F,0,0,1,0,0.26458333,0,1 @ F,0,0,1,0,0.26458333,0,1 @ F,0,0,1,0,0.26458333,0,1 @ F,0,0,1,0,0.26458333,0,1 @ F,0,0,1,0,0.26458333,0,1 @ F,0,0,1,0,0.26458333,0,1 | F,0,0,1,0,0.26458333,0,1 @ F,0,0,1,0,0.26458333,0,1 @ F,0,0,1,0,0.26458333,0,1 @ F,0,0,1,0,0.26458333,0,1 @ F,0,0,1,0,0.26458333,0,1 @ F,0,0,1,0,0.26458333,0,1 @ F,0,0,1,0,0.26458333,0,1 @ F,0,0,1,0,0.26458333,0,1"
       radius="1"
       unit="px"
       method="auto"
       mode="F"
       chamfer_steps="1"
       flexible="false"
       use_knot_distance="true"
       apply_no_radius="true"
       apply_with_radius="true"
       only_selected="false"
       hide_knots="false" />
    <filter
       style="color-interpolation-filters:sRGB"
       inkscape:label="Blur"
       id="filter49"
       x="-0.0044813063"
       y="-0.046209637"
       width="1.0089626"
       height="1.0924193">
      <feGaussianBlur
         stdDeviation="0.15 0.15"
         result="blur"
         id="feGaussianBlur49" />
    </filter>
    <filter
       style="color-interpolation-filters:sRGB;"
       inkscape:label="Lightness-Contrast"
       id="filter225"
       x="0"
       y="0"
       width="1"
       height="1">
      <feColorMatrix
         values="0.786441 0 0 -0.118087 0.10678 0 0.786441 0 -0.118087 0.10678 0 0 0.786441 -0.118087 0.10678 0 0 0 1 0"
         id="feColorMatrix225"
         result="fbSourceGraphic" />
      <feColorMatrix
         result="fbSourceGraphicAlpha"
         in="fbSourceGraphic"
         values="0 0 0 -1 0 0 0 0 -1 0 0 0 0 -1 0 0 0 0 1 0"
         id="feColorMatrix226" />
      <feColorMatrix
         id="feColorMatrix227"
         values="0.786441 0 0 -0.118087 0.10678 0 0.786441 0 -0.118087 0.10678 0 0 0.786441 -0.118087 0.10678 0 0 0 1 0"
         in="fbSourceGraphic" />
    </filter>
  </defs>
  <g
     inkscape:label="Layer 1"
     inkscape:groupmode="layer"
     id="layer1"
     transform="translate(-107.1352,-151.16465)">
    <path
       d="m 109.81575,155.85522 -1.60465,-2.65674 a 0.07370275,0.07370275 164.43421 0 0 -0.13679,0.0381 v 2.73116 a 0.26458333,0.26458333 135 0 1 -0.26458,0.26458 h -0.40995 a 0.26458333,0.26458333 45 0 1 -0.26458,-0.26458 v -4.4322 a 0.26458333,0.26458333 135 0 1 0.26458,-0.26458 h 0.56056 a 0.47860849,0.47860849 28.934602 0 1 0.4053,0.22406 l 1.54363,2.45782 a 0.16617105,0.16617105 0 0 0 0.28144,0 l 1.54363,-2.45782 a 0.47860849,0.47860849 151.0654 0 1 0.4053,-0.22406 h 0.57829 a 0.26458333,0.26458333 45 0 1 0.26458,0.26458 v 4.4322 a 0.26458333,0.26458333 135 0 1 -0.26458,0.26458 h -0.51627 a 0.26458333,0.26458333 45 0 1 -0.26458,-0.26458 l 0,-2.73116 a 0.07723199,0.07723199 16.272548 0 0 -0.14234,-0.0415 l -1.69986,2.66362 a 0.16429384,0.16429384 0.70675402 0 1 -0.27913,-0.003 z m 7.44455,-4.68232 c 0.55156,0.0351 1.03221,0.18241 1.44195,0.44181 0.12341,0.0781 0.31049,0.2247 0.41525,0.32647 0.42504,0.41289 0.6625,0.94301 0.71237,1.59038 0.0112,0.14569 0.0114,0.38312 -0.001,0.52863 -0.0529,0.59806 -0.28968,1.09889 -0.71028,1.50249 -0.10542,0.10116 -0.29203,0.2483 -0.41516,0.32687 -0.40556,0.25878 -0.88349,0.40572 -1.43379,0.44082 -0.1458,0.009 -0.38301,0.009 -0.52882,1.2e-4 -0.55507,-0.0349 -1.03594,-0.18189 -1.44261,-0.44102 -0.12318,-0.0785 -0.3098,-0.22561 -0.41488,-0.32706 -0.42289,-0.4083 -0.66001,-0.92377 -0.71137,-1.54642 -0.012,-0.14562 -0.012,-0.38305 -1.4e-4,-0.52865 0.051,-0.62661 0.28789,-1.14241 0.71062,-1.54742 0.10549,-0.10107 0.29409,-0.24567 0.4184,-0.32237 0.40822,-0.25189 0.8853,-0.39884 1.43125,-0.44084 0.14568,-0.0112 0.38288,-0.0131 0.52869,-0.004 z m -0.52843,0.94564 c -0.3158,0.0365 -0.5942,0.14055 -0.83519,0.31218 -0.11893,0.0847 -0.28943,0.25178 -0.37455,0.37035 -0.14483,0.20174 -0.23528,0.43066 -0.27135,0.68678 -0.0204,0.1446 -0.0204,0.38297 0,0.52755 0.0361,0.25611 0.12651,0.48504 0.27133,0.68677 0.0851,0.11859 0.25564,0.28569 0.37466,0.37023 0.24244,0.17221 0.52375,0.27643 0.8439,0.31265 0.14514,0.0164 0.38302,0.0164 0.5281,-3.1e-4 0.3158,-0.0365 0.59419,-0.14055 0.83518,-0.31218 0.11893,-0.0847 0.29029,-0.2509 0.37637,-0.36878 0.14251,-0.19515 0.23203,-0.41577 0.26857,-0.66186 0.0215,-0.14443 0.0212,-0.38274 0.003,-0.52763 -0.0345,-0.27381 -0.12494,-0.51216 -0.27123,-0.71504 -0.0854,-0.11838 -0.25847,-0.28301 -0.37812,-0.36666 -0.24216,-0.16929 -0.52304,-0.27324 -0.84263,-0.31187 -0.14501,-0.0175 -0.38287,-0.0189 -0.52795,-0.002 z m 8.58225,1.54131 c 0.0695,0.0296 0.13149,0.0592 0.18584,0.0888 0.12765,0.0695 0.30032,0.23786 0.37184,0.36482 0.0641,0.11374 0.10789,0.24196 0.13144,0.38465 0.0238,0.14402 0.0233,0.38278 0.002,0.52717 -0.0399,0.26719 -0.14312,0.49461 -0.3098,0.68226 -0.0969,0.1091 -0.28933,0.25152 -0.42044,0.31559 -0.225,0.10994 -0.49556,0.17654 -0.81169,0.19981 -0.14569,0.0107 -0.38281,0.009 -0.52893,0.009 l -2.64256,0 a 0.26458333,0.26458333 45 0 1 -0.26458,-0.26458 v -4.4322 a 0.26458333,0.26458333 135 0 1 0.26458,-0.26458 h 2.5894 c 0.14612,0 0.38319,-0.001 0.529,0.008 0.32623,0.0205 0.59447,0.0808 0.8047,0.18081 0.13165,0.0626 0.3201,0.21204 0.40977,0.32702 0.11098,0.14229 0.18345,0.30785 0.21741,0.49667 0.0258,0.14366 0.0267,0.38327 -0.002,0.52641 -0.005,0.0278 -0.0119,0.0547 -0.0192,0.081 -0.0393,0.14016 -0.17608,0.34094 -0.29313,0.42707 -0.0619,0.0455 -0.13569,0.0908 -0.2214,0.13574 -0.12937,0.0678 -0.12688,0.14904 0.008,0.20625 z m -2.97712,-0.52838 h 1.3402 c 0.14612,0 0.38341,0.002 0.52882,-0.0114 0.0466,-0.004 0.0902,-0.0102 0.1309,-0.0172 0.14331,-0.0248 0.37429,-0.13583 0.42532,-0.26916 0.0361,-0.0945 0.0433,-0.31296 -0.0367,-0.43267 -0.0559,-0.0837 -0.24505,-0.17417 -0.38848,-0.19854 -0.0407,-0.007 -0.0844,-0.0125 -0.13129,-0.0169 -0.1453,-0.0135 -0.38245,-0.011 -0.52857,-0.011 h -1.3402 a 0.26458333,0.26458333 135 0 0 -0.26458,0.26458 l 0,0.42767 a 0.26458333,0.26458333 45 0 0 0.26458,0.26458 z m 0,2.20603 h 1.3845 c 0.14612,0 0.38358,0.003 0.52863,-0.0143 0.34607,-0.0407 0.56413,-0.16829 0.65416,-0.38281 0.0562,-0.13386 0.0563,-0.38352 -0.001,-0.51667 -0.0908,-0.20973 -0.30844,-0.33456 -0.65279,-0.37451 -0.14508,-0.0168 -0.38254,-0.0141 -0.52866,-0.0141 l -1.3845,0 a 0.26458333,0.26458333 135 0 0 -0.26458,0.26458 v 0.7732 a 0.26458333,0.26458333 45 0 0 0.26458,0.26458 z m 5.61051,0.89482 h -0.51627 a 0.26458333,0.26458333 45 0 1 -0.26458,-0.26458 v -4.4322 a 0.26458333,0.26458333 135 0 1 0.26458,-0.26458 h 0.51627 a 0.26458333,0.26458333 45 0 1 0.26458,0.26458 v 4.4322 a 0.26458333,0.26458333 135 0 1 -0.26458,0.26458 z m 2.88701,-1.844 v 1.57942 a 0.26458333,0.26458333 135 0 1 -0.26458,0.26458 h -0.51627 a 0.26458333,0.26458333 45 0 1 -0.26458,-0.26458 v -4.4322 a 0.26458333,0.26458333 135 0 1 0.26458,-0.26458 h 3.94492 a 0.26458333,0.26458333 45 0 1 0.26458,0.26458 v 0.37452 a 0.26458333,0.26458333 135 0 1 -0.26458,0.26458 h -2.89949 a 0.26458333,0.26458333 135 0 0 -0.26458,0.26458 v 0.56056 a 0.26458333,0.26458333 45 0 0 0.26458,0.26458 l 1.79205,0 a 0.26458333,0.26458333 45 0 1 0.26458,0.26458 v 0.33022 a 0.26458333,0.26458333 135 0 1 -0.26458,0.26458 l -1.79205,0 a 0.26458333,0.26458333 135 0 0 -0.26458,0.26458 z m 5.79295,0.94918 h 2.69572 a 0.26458333,0.26458333 45 0 1 0.26458,0.26458 v 0.36566 a 0.26458333,0.26458333 135 0 1 -0.26458,0.26458 h -3.74115 a 0.26458333,0.26458333 45 0 1 -0.26458,-0.26458 v -4.4322 a 0.26458333,0.26458333 135 0 1 0.26458,-0.26458 h 0.51627 a 0.26458333,0.26458333 45 0 1 0.26458,0.26458 l 0,3.53738 a 0.26458333,0.26458333 45 0 0 0.26458,0.26458 z m 4.68026,0.89482 h -0.51627 a 0.26458333,0.26458333 45 0 1 -0.26458,-0.26458 v -4.4322 a 0.26458333,0.26458333 135 0 1 0.26458,-0.26458 h 0.51627 a 0.26458333,0.26458333 45 0 1 0.26458,0.26458 v 4.4322 a 0.26458333,0.26458333 135 0 1 -0.26458,0.26458 z m 5.76757,-1.91367 h -1.0567 a 0.26458333,0.26458333 45 0 1 -0.26458,-0.26458 v -0.21504 a 0.26458333,0.26458333 135 0 1 0.26458,-0.26458 h 1.86292 a 0.26458333,0.26458333 45 0 1 0.26458,0.26458 v 1.59713 c 0,0.14612 -0.10214,0.32482 -0.23254,0.39071 -0.60378,0.30503 -1.27385,0.47371 -2.0102,0.50602 -0.14598,0.006 -0.38308,0.007 -0.52896,-0.001 -0.57483,-0.0322 -1.06382,-0.17169 -1.46697,-0.4185 -0.12456,-0.0763 -0.31233,-0.22213 -0.41652,-0.32448 -0.11853,-0.11644 -0.22368,-0.24484 -0.31546,-0.38521 -0.0799,-0.12226 -0.18891,-0.3335 -0.24324,-0.46909 -0.0888,-0.22168 -0.14506,-0.45226 -0.16871,-0.69172 -0.0144,-0.14536 -0.0144,-0.38295 -6e-4,-0.52837 0.0369,-0.39017 0.15691,-0.74933 0.36008,-1.0775 0.0769,-0.1242 0.22237,-0.31209 0.32305,-0.41791 0.49128,-0.51635 1.15769,-0.79854 1.99923,-0.84657 0.14588,-0.008 0.383,-0.008 0.52895,-0.001 0.25533,0.0121 0.48693,0.0422 0.69481,0.0903 0.14227,0.0329 0.36702,0.10928 0.50219,0.16472 0.16802,0.0689 0.33448,0.14945 0.49939,0.24163 0.12754,0.0713 0.18188,0.24448 0.12568,0.37936 l -0.15087,0.36206 c -0.0562,0.13488 -0.20362,0.18352 -0.33375,0.11708 -0.42649,-0.21775 -0.86073,-0.35178 -1.30273,-0.40209 -0.14516,-0.0165 -0.38255,-0.0217 -0.52798,-0.008 -0.33236,0.0314 -0.62447,0.1237 -0.87631,0.27706 -0.1247,0.0759 -0.30938,0.22704 -0.40627,0.33621 -0.19648,0.22136 -0.31591,0.48607 -0.35827,0.79413 -0.0199,0.14467 -0.02,0.38304 7.9e-4,0.52756 0.0395,0.27435 0.14297,0.51338 0.31051,0.71707 0.0927,0.11273 0.27491,0.26736 0.40036,0.34196 0.26635,0.15839 0.59376,0.25183 0.98222,0.28031 0.14569,0.0107 0.38292,0.0103 0.52878,0.002 0.37896,-0.0216 0.72366,-0.0907 1.03408,-0.20724 0.13675,-0.0513 0.24304,-0.22278 0.24304,-0.3689 v -0.23276 a 0.26458333,0.26458333 45 0 0 -0.26458,-0.26458 z m 6.29029,-0.23921 h -2.37678 a 0.26458333,0.26458333 135 0 0 -0.26458,0.26458 v 1.62372 a 0.26458333,0.26458333 135 0 1 -0.26458,0.26458 h -0.51626 a 0.26458333,0.26458333 45 0 1 -0.26458,-0.26458 v -4.4322 a 0.26458333,0.26458333 135 0 1 0.26458,-0.26458 h 0.51626 a 0.26458333,0.26458333 45 0 1 0.26458,0.26458 v 1.37565 a 0.26458333,0.26458333 45 0 0 0.26458,0.26458 h 2.37678 a 0.26458333,0.26458333 135 0 0 0.26458,-0.26458 v -1.37565 a 0.26458333,0.26458333 135 0 1 0.26458,-0.26458 h 0.51627 a 0.26458333,0.26458333 45 0 1 0.26458,0.26458 v 4.4322 a 0.26458333,0.26458333 135 0 1 -0.26458,0.26458 h -0.51627 a 0.26458333,0.26458333 45 0 1 -0.26458,-0.26458 v -1.62372 a 0.26458333,0.26458333 45 0 0 -0.26458,-0.26458 z m 5.20822,-1.64022 v 3.52852 a 0.26458333,0.26458333 135 0 1 -0.26458,0.26458 h -0.51627 a 0.26458333,0.26458333 45 0 1 -0.26458,-0.26458 v -3.52852 a 0.26458333,0.26458333 45 0 0 -0.26458,-0.26458 l -1.3845,0 a 0.26458333,0.26458333 45 0 1 -0.26458,-0.26458 v -0.37452 a 0.26458333,0.26458333 135 0 1 0.26458,-0.26458 h 4.34359 a 0.26458333,0.26458333 45 0 1 0.26458,0.26458 l 0,0.37452 a 0.26458333,0.26458333 135 0 1 -0.26458,0.26458 l -1.3845,0 a 0.26458333,0.26458333 135 0 0 -0.26458,0.26458 z"
       id="text1-7"
       style="font-size:9.07219px;line-height:0.85;font-family:'Media Gothic';-inkscape-font-specification:'Media Gothic';text-align:center;letter-spacing:0px;word-spacing:0px;text-anchor:middle;fill:#646464;stroke-width:1.32292;stroke-linecap:square;stroke-miterlimit:8;filter:url(#filter225)"
       aria-label="mobiflight"
       inkscape:path-effect="#path-effect225"
       inkscape:original-d="m 109.95254,156.0817 -1.87823,-3.1097 v 3.26032 h -0.93911 v -4.96136 h 1.08972 l 1.82507,2.90594 1.82507,-2.90594 h 1.10745 v 4.96136 h -1.04543 V 152.972 Z m 7.04335,-4.91705 q 1.15174,0 1.92252,0.60245 0.9214,0.72648 0.9214,2.02884 0,1.21376 -0.9214,1.94024 -0.76192,0.60245 -1.91366,0.60245 -1.1606,0 -1.92253,-0.60245 -0.92139,-0.72648 -0.92139,-1.98454 0,-1.26692 0.92139,-1.98454 0.77079,-0.58473 1.91367,-0.60245 z m 0,0.93911 q -0.7885,0 -1.30236,0.49614 -0.46069,0.46069 -0.46069,1.15174 0,0.69104 0.46069,1.15174 0.51386,0.49614 1.31122,0.49614 0.7885,0 1.30235,-0.49614 0.4607,-0.45184 0.4607,-1.12516 0,-0.73535 -0.4607,-1.17832 -0.51385,-0.48728 -1.31121,-0.49614 z m 8.07106,1.46183 q 0.48727,0.16833 0.64675,0.33666 0.31008,0.31894 0.31008,0.85938 0,0.72648 -0.52271,1.12516 -0.46956,0.34553 -1.30236,0.34553 h -3.17172 v -4.96136 h 3.11856 q 0.88596,0 1.2935,0.3278 0.42526,0.34553 0.42526,0.94798 0,0.35438 -0.15061,0.58473 -0.14176,0.22149 -0.64675,0.43412 z m -2.99453,-0.43412 h 1.86936 q 0.44298,0 0.64675,-0.10632 0.20377,-0.10631 0.20377,-0.3721 0,-0.26578 -0.20377,-0.3721 -0.19491,-0.10631 -0.64675,-0.10631 h -1.86936 z m 0,2.20603 h 1.91366 q 0.96569,0 0.96569,-0.65561 0,-0.64675 -0.96569,-0.64675 h -1.91366 z m 6.13967,0.89482 h -1.04543 v -4.96136 h 1.04543 z m 2.62243,-2.10858 v 2.10858 h -1.04543 v -4.96136 h 4.47408 v 0.90368 h -3.42865 v 1.08972 h 2.32121 v 0.85938 z m 5.52837,1.21376 h 3.22488 v 0.89482 h -4.27031 v -4.96136 h 1.04543 z m 5.20942,0.89482 h -1.04543 v -4.96136 h 1.04543 z m 5.76757,-1.91367 h -1.58586 v -0.7442 h 2.39208 v 2.12629 q -1.09858,0.63789 -2.50725,0.63789 -1.2049,0 -1.94911,-0.57587 -0.40754,-0.31895 -0.64674,-0.7885 -0.29237,-0.55815 -0.29237,-1.19604 0,-0.8771 0.52272,-1.55929 0.82393,-1.05428 2.43637,-1.05428 0.71763,0 1.21376,0.16833 0.49614,0.16833 0.97456,0.46955 l -0.35439,0.85052 q -0.87709,-0.51385 -1.79849,-0.54929 -0.82394,0 -1.35551,0.44298 -0.56701,0.46069 -0.56701,1.24034 0,0.72648 0.51385,1.16946 0.52272,0.44298 1.46183,0.44298 0.88596,0 1.54156,-0.31895 z m 6.29029,-0.23921 h -2.90594 v 2.15288 h -1.04542 v -4.96136 h 1.04542 v 1.90481 h 2.90594 v -1.90481 h 1.04543 v 4.96136 h -1.04543 z m 4.94364,-1.9048 v 4.05768 h -1.04543 v -4.05768 h -1.91366 v -0.90368 h 4.87275 v 0.90368 z" />
  </g>
</svg>
