<?xml version="1.0" encoding="UTF-8" standalone="no"?>
<!-- Created with Inkscape (http://www.inkscape.org/) -->

<svg
   width="34.219238mm"
   height="5.2491879mm"
   viewBox="0 0 34.219238 5.2491879"
   version="1.1"
   id="svg1"
   inkscape:version="1.3.2 (091e20e, 2023-11-25, custom)"
   sodipodi:docname="GarminLogo.svg"
   inkscape:export-filename="GarminLogo.png"
   inkscape:export-xdpi="96"
   inkscape:export-ydpi="96"
   xmlns:inkscape="http://www.inkscape.org/namespaces/inkscape"
   xmlns:sodipodi="http://sodipodi.sourceforge.net/DTD/sodipodi-0.dtd"
   xmlns="http://www.w3.org/2000/svg"
   xmlns:svg="http://www.w3.org/2000/svg">
  <sodipodi:namedview
     id="namedview1"
     pagecolor="#000000"
     bordercolor="#000000"
     borderopacity="0.25"
     inkscape:showpageshadow="2"
     inkscape:pageopacity="0.0"
     inkscape:pagecheckerboard="0"
     inkscape:deskcolor="#d1d1d1"
     inkscape:document-units="mm"
     inkscape:export-bgcolor="#000000ff"
     inkscape:zoom="4.6513897"
     inkscape:cx="64.496853"
     inkscape:cy="34.613311"
     inkscape:window-width="3840"
     inkscape:window-height="2054"
     inkscape:window-x="2869"
     inkscape:window-y="-11"
     inkscape:window-maximized="1"
     inkscape:current-layer="layer1" />
  <defs
     id="defs1">
    <inkscape:path-effect
       effect="fillet_chamfer"
       id="path-effect1"
       is_visible="true"
       lpeversion="1"
       nodesatellites_param="F,0,0,1,0,0.26458333,0,1 @ F,0,0,1,0,0.26458333,0,1 @ F,0,0,1,0,0.26458333,0,1 @ F,0,0,1,0,0.26458333,0,1 @ F,0,0,1,0,0.26458333,0,1 @ F,0,0,1,0,0.26458333,0,1 @ F,0,0,1,0,0.26458333,0,1 @ F,0,0,1,0,0.26458333,0,1 @ F,0,0,1,0,0.26458333,0,1 @ F,0,0,1,0,0.26458333,0,1 @ F,0,0,1,0,0.26458333,0,1 @ F,0,0,1,0,0.26458333,0,1 @ F,0,0,1,0,0.26458333,0,1 @ F,0,0,1,0,0.26458333,0,1 @ F,0,0,1,0,0.26458333,0,1 @ F,0,0,1,0,0.26458333,0,1 @ F,0,0,1,0,0.26458333,0,1 @ F,0,0,1,0,0.26458333,0,1 @ F,0,0,1,0,0.26458333,0,1 @ F,0,0,1,0,0.26458333,0,1 @ F,0,0,1,0,0.26458333,0,1 @ F,0,0,1,0,0.26458333,0,1 @ F,0,0,1,0,0.26458333,0,1 | F,0,0,1,0,0.26458333,0,1 @ F,0,0,1,0,0.26458333,0,1 @ F,0,0,1,0,0.26458333,0,1 @ F,0,0,1,0,0.26458333,0,1 @ F,0,0,1,0,0.26458333,0,1 @ F,0,0,1,0,0.26458333,0,1 @ F,0,0,1,0,0.26458333,0,1 @ F,0,0,1,0,0.26458333,0,1 | F,0,0,1,0,0.26458333,0,1 @ F,0,0,1,0,0.26458333,0,1 @ F,0,0,1,0,0.26458333,0,1 | F,0,0,1,0,0.26458333,0,1 @ F,0,0,1,0,0.26458333,0,1 @ F,0,0,1,0,0.26458333,0,1 @ F,0,0,1,0,0.26458333,0,1 @ F,0,0,1,0,0.26458333,0,1 @ F,0,0,1,0,0.26458333,0,1 @ F,0,0,1,0,0.26458333,0,1 @ F,0,0,1,0,0.26458333,0,1 @ F,0,0,1,0,0.26458333,0,1 @ F,0,0,1,0,0.26458333,0,1 @ F,0,0,1,0,0.26458333,0,1 @ F,0,0,1,0,0.26458333,0,1 @ F,0,0,1,0,0.26458333,0,1 | F,0,0,1,0,0.26458333,0,1 @ F,0,0,1,0,0.26458333,0,1 @ F,0,0,1,0,0.26458333,0,1 @ F,0,0,1,0,0.26458333,0,1 @ F,0,0,1,0,0.26458333,0,1 @ F,0,0,1,0,0.26458333,0,1 @ F,0,0,1,0,0.26458333,0,1 @ F,0,0,1,0,0.26458333,0,1 @ F,0,0,1,0,0.26458333,0,1 | F,0,0,1,0,0.26458333,0,1 @ F,0,0,1,0,0.26458333,0,1 @ F,0,0,1,0,0.26458333,0,1 @ F,0,0,1,0,0.26458333,0,1 @ F,0,0,1,0,0.26458333,0,1 @ F,0,0,1,0,0.26458333,0,1 @ F,0,0,1,0,0.26458333,0,1 @ F,0,0,1,0,0.26458333,0,1 @ F,0,0,1,0,0.26458333,0,1 @ F,0,0,1,0,0.26458333,0,1 @ F,0,0,1,0,0.26458333,0,1 @ F,0,0,1,0,0.26458333,0,1 | F,0,0,1,0,0.26458333,0,1 @ F,0,0,1,0,0.26458333,0,1 @ F,0,0,1,0,0.26458333,0,1 @ F,0,0,1,0,0.26458333,0,1 | F,0,0,1,0,0.26458333,0,1 @ F,0,0,1,0,0.26458333,0,1 @ F,0,0,1,0,0.26458333,0,1 @ F,0,0,1,0,0.26458333,0,1 @ F,0,0,1,0,0.26458333,0,1 @ F,0,0,1,0,0.26458333,0,1 @ F,0,0,1,0,0.26458333,0,1 @ F,0,0,1,0,0.26458333,0,1 @ F,0,0,1,0,0.26458333,0,1 @ F,0,0,1,0,0.26458333,0,1"
       radius="1"
       unit="px"
       method="auto"
       mode="F"
       chamfer_steps="1"
       flexible="false"
       use_knot_distance="true"
       apply_no_radius="true"
       apply_with_radius="true"
       only_selected="false"
       hide_knots="false" />
    <filter
       style="color-interpolation-filters:sRGB;"
       inkscape:label="Lightness-Contrast"
       id="filter1"
       x="0"
       y="0"
       width="1"
       height="1">
      <feColorMatrix
         values="0.786441 0 0 -0.160477 0.10678 0 0.786441 0 -0.160477 0.10678 0 0 0.786441 -0.160477 0.10678 0 0 0 1 0"
         id="feColorMatrix1"
         result="fbSourceGraphic" />
      <feColorMatrix
         result="fbSourceGraphicAlpha"
         in="fbSourceGraphic"
         values="0 0 0 -1 0 0 0 0 -1 0 0 0 0 -1 0 0 0 0 1 0"
         id="feColorMatrix2" />
      <feColorMatrix
         id="feColorMatrix3"
         values="0.786441 0 0 -0.160477 0.10678 0 0.786441 0 -0.160477 0.10678 0 0 0.786441 -0.160477 0.10678 0 0 0 1 0"
         in="fbSourceGraphic" />
    </filter>
  </defs>
  <g
     inkscape:label="Layer 1"
     inkscape:groupmode="layer"
     id="layer1"
     transform="translate(-119.06405,-132.55724)">
    <path
       d="m 123.43159,135.89577 h -1.10713 a 0.26458333,0.26458333 45 0 1 -0.26458,-0.26458 v -0.17742 a 0.26458333,0.26458333 135 0 1 0.26458,-0.26458 h 1.90297 a 0.26458333,0.26458333 45 0 1 0.26458,0.26458 v 0.89887 c 0,0.66237 -0.10174,0.83121 -0.23118,0.89897 -0.62956,0.32955 -1.29736,0.51251 -2.00341,0.54887 -0.14592,0.008 -0.38305,0.008 -0.52893,-4.3e-4 -0.58124,-0.0323 -1.07731,-0.17356 -1.48822,-0.42369 -0.12475,-0.0759 -0.31352,-0.22033 -0.42004,-0.32028 -0.44643,-0.4189 -0.6956,-0.95556 -0.7475,-1.60995 -0.0116,-0.14567 -0.0116,-0.38307 1.8e-4,-0.52869 0.0482,-0.59655 0.26317,-1.09503 0.64508,-1.49543 0.10082,-0.1057 0.28231,-0.25919 0.40295,-0.34153 0.45341,-0.30947 1.01405,-0.48192 1.68193,-0.51736 0.14589,-0.008 0.38304,-0.008 0.52887,0.001 0.0974,0.006 0.19265,0.0154 0.28575,0.0281 0.14474,0.0198 0.37705,0.068 0.51796,0.10659 0.11342,0.031 0.23272,0.0688 0.35791,0.11327 0.13767,0.0489 0.35929,0.1352 0.4852,0.20906 0.12095,0.071 0.16557,0.25526 0.1126,0.39145 l -0.12058,0.31009 c -0.053,0.13619 -0.19398,0.17974 -0.3216,0.10865 -0.14929,-0.0832 -0.30214,-0.15265 -0.45857,-0.20847 -0.13758,-0.0491 -0.36701,-0.10978 -0.51,-0.13977 -0.12886,-0.027 -0.25262,-0.0464 -0.37128,-0.0581 -0.14535,-0.0144 -0.38292,-0.0152 -0.52831,-0.001 -0.3305,0.0318 -0.62206,0.12506 -0.87469,0.2798 -0.1245,0.0763 -0.30853,0.22782 -0.40694,0.33567 -0.22755,0.24936 -0.36376,0.54714 -0.40863,0.89333 -0.0188,0.14483 -0.0189,0.38305 8.3e-4,0.52773 0.0447,0.3277 0.17559,0.6107 0.3927,0.849 0.0983,0.10793 0.28262,0.25931 0.40737,0.33513 0.2667,0.1621 0.58295,0.25849 0.94875,0.28917 0.14558,0.0122 0.38294,0.0117 0.52866,0.001 0.10585,-0.008 0.21134,-0.0198 0.31649,-0.0365 0.14428,-0.023 0.3754,-0.0765 0.51526,-0.11874 0.0874,-0.0264 0.17178,-0.0553 0.25306,-0.0867 0.13625,-0.0527 0.24249,-0.2241 0.24249,-0.37022 l 0,-0.16252 a 0.26458333,0.26458333 45 0 0 -0.26458,-0.26458 z m 5.7419,0.52808 h -1.8509 a 0.4281063,0.4281063 148.28261 0 0 -0.38291,0.23665 l -0.41042,0.82085 a 0.4281063,0.4281063 148.28261 0 1 -0.38291,0.23665 h -0.37824 a 0.16901186,0.16901186 57.430171 0 1 -0.15335,-0.24007 l 2.12785,-4.59236 a 0.4141978,0.4141978 147.43017 0 1 0.37581,-0.24007 h 0.34849 a 0.41861963,0.41861963 32.294425 0 1 0.37812,0.23899 l 2.18273,4.59452 a 0.1672266,0.1672266 122.29442 0 1 -0.15104,0.23899 h -0.527 a 0.42810334,0.42810334 31.717563 0 1 -0.3829,-0.23665 l -0.41043,-0.82085 a 0.42810334,0.42810334 31.717563 0 0 -0.3829,-0.23665 z m -0.12189,-0.92817 -0.66998,-1.33444 a 0.13392287,0.13392287 0.18762742 0 0 -0.23897,-7.9e-4 l -0.68175,1.33602 a 0.16202709,0.16202709 58.517286 0 0 0.14432,0.23567 h 1.30051 a 0.16322086,0.16322086 121.67034 0 0 0.14587,-0.23646 z m 4.083,0.41924 v 1.53851 a 0.26458333,0.26458333 135 0 1 -0.26458,0.26458 h -0.46006 a 0.26458333,0.26458333 45 0 1 -0.26458,-0.26458 v -4.54334 a 0.26458333,0.26458333 135 0 1 0.26458,-0.26458 h 2.34923 c 0.14612,0 0.38308,-6.6e-4 0.52912,0.004 0.14034,0.004 0.26741,0.0126 0.38122,0.0245 0.14526,0.0152 0.37907,0.0593 0.51668,0.10801 0.0315,0.0112 0.0623,0.0231 0.0924,0.0359 0.13425,0.0572 0.33293,0.19174 0.4299,0.30062 0.0335,0.0376 0.0647,0.0777 0.0937,0.12011 0.0822,0.12057 0.17133,0.34258 0.20419,0.48482 0.0127,0.0551 0.0229,0.11112 0.0306,0.16803 0.0195,0.14472 0.02,0.38302 -2.7e-4,0.52761 -0.0836,0.5955 -0.46464,0.97451 -1.14319,1.13702 -0.14205,0.034 -0.19275,0.1472 -0.11004,0.26767 l 1.15083,1.67606 a 0.13927974,0.13927974 117.76284 0 1 -0.11482,0.21812 h -0.54931 a 0.50428605,0.50428605 27.68461 0 1 -0.41494,-0.21771 l -1.12731,-1.63225 a 0.50426906,0.50426906 27.683816 0 0 -0.41494,-0.2177 l -0.91375,2e-5 a 0.26459066,0.26459066 134.99921 0 0 -0.26458,0.26459 z m 0.26458,-1.10504 1.241,0 c 0.14612,0 0.38307,9e-4 0.52913,-0.003 0.005,-1.4e-4 0.01,-2.9e-4 0.0146,-4.4e-4 0.14598,-0.005 0.3835,-0.0316 0.51949,-0.0841 0.0317,-0.0122 0.17357,-0.0734 0.2591,-0.19011 0.0275,-0.0375 0.0498,-0.0789 0.067,-0.12428 0.0515,-0.13595 0.0516,-0.38321 0.001,-0.51957 -0.0171,-0.0462 -0.0394,-0.0882 -0.0669,-0.12595 -0.0853,-0.11683 -0.30956,-0.2239 -0.45244,-0.25194 -0.0309,-0.006 -0.17404,-0.0232 -0.32004,-0.0278 -0.007,-2.3e-4 -0.0146,-4.4e-4 -0.022,-6.5e-4 -0.14604,-0.004 -0.38298,-0.003 -0.5291,-0.003 h -1.241 a 0.26458333,0.26458333 135 0 0 -0.26458,0.26458 v 0.80222 a 0.26458333,0.26458333 45 0 0 0.26458,0.26458 z m 7.60155,2.6104 -1.6676,-2.97463 a 0.06910437,0.06910437 165.36237 0 0 -0.12938,0.0338 v 2.97399 a 0.26458333,0.26458333 135 0 1 -0.26458,0.26458 h -0.3708 a 0.26458333,0.26458333 45 0 1 -0.26458,-0.26458 v -4.54334 a 0.26458333,0.26458333 135 0 1 0.26458,-0.26458 h 0.70549 a 0.44945059,0.44945059 30.484543 0 1 0.39298,0.23134 l 1.43156,2.57933 a 0.15070402,0.15070402 0.63449266 0 0 0.26189,0.003 l 1.51062,-2.58513 a 0.46105418,0.46105418 150.14995 0 1 0.39807,-0.22844 h 0.62369 a 0.26458333,0.26458333 45 0 1 0.26458,0.26458 v 4.54334 a 0.26458333,0.26458333 135 0 1 -0.26458,0.26458 l -0.46006,0 a 0.26458333,0.26458333 45 0 1 -0.26458,-0.26458 v -2.97399 a 0.07255802,0.07255802 15.335497 0 0 -0.13497,-0.037 l -1.76798,2.98107 a 0.15259182,0.15259182 0.69787061 0 1 -0.26435,-0.003 z m 4.92351,-4.77477 h 0.46005 a 0.26458333,0.26458333 45 0 1 0.26458,0.26458 v 4.54334 a 0.26458333,0.26458333 135 0 1 -0.26458,0.26458 h -0.46005 a 0.26458333,0.26458333 45 0 1 -0.26458,-0.26458 v -4.54334 a 0.26458333,0.26458333 135 0 1 0.26458,-0.26458 z m 3.127,1.86368 v 2.94424 a 0.26458333,0.26458333 135 0 1 -0.26458,0.26458 h -0.3708 a 0.26458333,0.26458333 45 0 1 -0.26458,-0.26458 v -4.54334 a 0.26458333,0.26458333 135 0 1 0.26458,-0.26458 h 0.36336 a 0.63086991,0.63086991 22.752906 0 1 0.45001,0.18873 l 2.96867,3.02156 a 0.10822823,0.10822823 157.75291 0 0 0.18543,-0.0758 l 0,-2.86986 a 0.26458333,0.26458333 135 0 1 0.26458,-0.26458 h 0.3708 a 0.26458333,0.26458333 45 0 1 0.26458,0.26458 v 4.54334 a 0.26458333,0.26458333 135 0 1 -0.26458,0.26458 h -0.27411 a 0.63296616,0.63296616 22.685195 0 1 -0.45046,-0.18829 l -3.05702,-3.09682 a 0.10859341,0.10859341 157.6852 0 0 -0.18588,0.0763 z"
       id="text1-7-1"
       style="font-size:7.61619px;line-height:0.85;font-family:'Media Gothic';-inkscape-font-specification:'Media Gothic';text-align:center;letter-spacing:0px;word-spacing:0px;text-anchor:middle;fill:#646464;stroke-width:1.32292;stroke-linecap:square;stroke-miterlimit:8;filter:url(#filter1)"
       aria-label="GARMIN"
       inkscape:path-effect="#path-effect1"
       inkscape:original-d="m 123.69617,135.89577 h -1.63629 v -0.70658 h 2.43213 v 1.42803 0.50577 q -1.16028,0.68426 -2.49907,0.68426 -1.21234,0 -1.97098,-0.58013 -0.95947,-0.73634 -0.95947,-2.04537 0,-1.21978 0.8479,-1.94123 0.81071,-0.68427 2.15693,-0.68427 0.43139,0 0.81071,0.0818 0.37932,0.0744 0.86277,0.26776 0.24544,0.0967 0.44626,0.26032 l -0.31238,0.80327 q -0.44626,-0.29751 -0.93715,-0.42395 -0.49089,-0.13388 -0.89252,-0.13388 -0.81815,0 -1.35366,0.44626 -0.61733,0.50577 -0.61733,1.33879 0,0.80327 0.60245,1.29415 0.54295,0.4537 1.42804,0.4537 0.42395,0 0.84046,-0.0967 0.41651,-0.0967 0.7512,-0.26032 z m 5.7419,0.52808 h -2.38006 l -0.64708,1.29415 h -0.9074 l 2.35031,-5.0725 h 0.87765 l 2.40981,5.0725 h -1.05616 z m -0.26776,-0.69171 -0.9074,-1.80736 -0.92227,1.80736 z m 3.96429,-0.0818 v 2.06767 h -0.98922 v -5.0725 h 2.87839 q 0.5727,0 0.9074,0.0669 0.33469,0.0669 0.58013,0.23057 0.2752,0.19338 0.41652,0.52807 0.12644,0.31982 0.12644,0.68427 0,1.24209 -1.4206,1.45035 l 1.45035,2.1123 h -1.07847 l -1.42803,-2.06767 z m 0,-0.84046 h 1.77016 q 0.38676,0 0.54296,-0.0223 0.16362,-0.0223 0.31238,-0.0893 0.31238,-0.15619 0.31238,-0.55039 0,-0.40163 -0.31238,-0.55039 -0.14132,-0.0744 -0.30495,-0.0967 -0.15619,-0.0223 -0.55039,-0.0223 h -1.77016 z m 7.99551,2.84119 -1.92636,-3.43621 v 3.50315 h -0.89996 v -5.0725 h 1.23465 l 1.68836,3.04201 1.7776,-3.04201 h 1.15285 v 5.0725 h -0.98922 v -3.50315 z m 4.52955,-5.00556 h 0.98921 v 5.0725 h -0.98921 z m 3.39158,1.5991 v 3.4734 h -0.89996 v -5.0725 h 0.89252 l 3.33953,3.39902 v -3.39902 h 0.89996 v 5.0725 h -0.80327 z" />
  </g>
</svg>
